<svg width="966" height="945" viewBox="0 0 966 945" fill="none" xmlns="http://www.w3.org/2000/svg">
<g clip-path="url(#clip0_289_132)">
<g opacity="0.099">
<path opacity="0.099" d="M468.755 937.353L19.7439 671.73C5.44895 663.683 -6.80405 650.5 7.12395 641.852L457.734 381.89C464.488 377.696 474.752 374.944 481.637 378.954L952.902 652.781C967.198 661.089 969.763 684.231 955.521 692.618L527.925 936.933C518.951 942.145 508.773 944.925 498.396 944.998C488.019 945.072 477.802 942.437 468.755 937.353V937.353Z" fill="#068BE4"/>
<path opacity="0.099" d="M468.755 561.353L19.7439 295.73C5.44895 287.683 -6.80405 274.5 7.12395 265.852L457.734 5.88998C464.488 1.69598 474.752 -1.05602 481.637 2.95398L952.902 276.781C967.198 285.089 969.763 308.231 955.521 316.618L527.925 560.933C518.951 566.145 508.773 568.925 498.396 568.999C488.019 569.072 477.802 566.437 468.755 561.353V561.353Z" stroke="#242833"/>
<path opacity="0.099" d="M468.755 636.353L19.7439 370.73C5.44895 362.683 -6.80405 349.5 7.12395 340.852L457.734 80.89C464.488 76.696 474.752 73.944 481.637 77.954L952.902 351.781C967.198 360.089 969.763 383.231 955.521 391.618L527.925 635.933C518.951 641.145 508.773 643.925 498.396 643.999C488.019 644.072 477.802 641.437 468.755 636.353V636.353Z" stroke="#242833"/>
</g>
</g>
<defs>
<clipPath id="clip0_289_132">
<rect width="966" height="945" fill="white"/>
</clipPath>
</defs>
</svg>
