<svg width="237" height="180" viewBox="0 0 237 180" fill="none" xmlns="http://www.w3.org/2000/svg">
<g clip-path="url(#clip0_288_19)">
<path d="M114.92 177.69L4.60978 112.51C1.08978 110.51 -1.92022 107.3 1.49978 105.18L112.22 41.39C113.87 40.39 116.4 39.69 118.09 40.67L233.87 107.86C237.39 109.86 238.02 115.58 234.52 117.64L129.46 177.64C127.25 178.911 124.746 179.584 122.196 179.593C119.647 179.602 117.139 178.946 114.92 177.69V177.69Z" fill="#0061A7"/>
<path d="M114.92 174.68L4.60978 109.5C1.08978 107.5 -1.92022 104.29 1.49978 102.17L112.22 38.3799C113.87 37.3799 116.4 36.6799 118.09 37.6599L233.87 104.85C237.39 106.85 238.02 112.57 234.52 114.63L129.46 174.63C127.25 175.901 124.746 176.574 122.196 176.583C119.647 176.592 117.139 175.936 114.92 174.68V174.68Z" fill="#068BE4"/>
<path opacity="0.25" d="M124 88.6899L102.25 101.1C102.25 101.1 135.78 121.56 142.64 124.44L155.18 106.44" fill="url(#paint0_linear_288_19)"/>
<path opacity="0.25" d="M116.5 148.26L94.73 135.87L73 148.29C73 148.29 84.34 155.21 95.18 161.56C102 156.69 108.9 151.77 116.5 148.26Z" fill="url(#paint1_linear_288_19)"/>
<path opacity="0.46" d="M69.5898 71.73L55.7798 79.61C55.7798 79.61 56.9498 86.83 63.7798 89.72L81.8898 78.14" fill="url(#paint2_linear_288_19)"/>
<path d="M76.3495 79.61C80.9501 79.61 84.6795 76.9864 84.6795 73.75C84.6795 70.5136 80.9501 67.89 76.3495 67.89C71.749 67.89 68.0195 70.5136 68.0195 73.75C68.0195 76.9864 71.749 79.61 76.3495 79.61Z" fill="#68E1FD"/>
<path d="M76.3396 72.84C79.7859 72.84 82.5796 71.6983 82.5796 70.29C82.5796 68.8817 79.7859 67.74 76.3396 67.74C72.8934 67.74 70.0996 68.8817 70.0996 70.29C70.0996 71.6983 72.8934 72.84 76.3396 72.84Z" fill="#974C26"/>
<path d="M76.1196 66C76.1196 64.85 76.1196 63.7 75.9896 62.55L75.8996 61.65L75.8396 61.07C75.8271 60.8678 75.797 60.667 75.7496 60.47L75.6296 59.77C74.9482 55.8618 73.4302 52.147 71.1796 48.88C70.332 50.8956 69.9066 53.0636 69.9296 55.25C69.9296 55.9 69.9896 56.54 70.0396 57.15V57.52C70.0396 57.83 70.1496 58.17 70.2096 58.45C70.4665 59.6208 70.8005 60.7733 71.2096 61.9C71.5778 62.9348 72.0293 63.9381 72.5596 64.9C73.1296 65.99 73.7396 67.05 74.4096 68.09C74.9196 68.9 75.4096 69.62 75.8996 70.31C76.0473 68.8781 76.1207 67.4395 76.1196 66V66ZM72.8396 53.09C72.8695 52.9415 72.8695 52.7885 72.8396 52.64C72.9996 52.8 73.1596 52.97 73.3096 53.14C73.1544 53.11 72.9948 53.11 72.8396 53.14V53.09Z" fill="#999A1C"/>
<path d="M78.2598 66.9199C78.8979 65.953 79.4822 64.9514 80.0098 63.9199C80.1598 63.6499 80.2898 63.3899 80.4298 63.1199L80.6898 62.5899L80.9398 62.0399C81.0298 61.8199 81.1298 61.5999 81.2198 61.3899C82.7598 57.7329 83.4898 53.7859 83.3598 49.8199C81.5519 51.0556 80.0197 52.6525 78.8598 54.5099C78.5198 55.0499 78.2098 55.5999 77.9198 56.1599L77.7898 56.3999V56.4999L77.4298 57.3699C77.0167 58.4919 76.6826 59.6414 76.4298 60.8099C76.1788 61.8854 76.0116 62.9787 75.9298 64.0799C75.8198 65.2999 75.7598 66.5199 75.7598 67.7499C75.7598 68.7499 75.7598 69.5799 75.8198 70.4199C76.6198 69.2999 77.4798 68.1299 78.2598 66.9199V66.9199ZM82.4998 54.2599C82.603 54.1454 82.6783 54.0085 82.7198 53.8599C82.7198 54.0899 82.8098 54.2999 82.8398 54.5099C82.7421 54.4072 82.627 54.3225 82.4998 54.2599V54.2599Z" fill="#999A1C"/>
<path d="M78.2098 69.79C78.8598 69.46 79.4998 69.12 80.1398 68.74L80.6298 68.45L80.9398 68.25L81.2498 68.03L81.6098 67.77C83.6196 66.2927 85.2875 64.3998 86.4998 62.22C85.1271 62.3106 83.7869 62.678 82.5598 63.3C82.2098 63.48 81.8698 63.68 81.5598 63.89L81.4098 63.98L80.9298 64.34C80.3381 64.8067 79.78 65.3146 79.2598 65.86C78.7819 66.3608 78.3407 66.8956 77.9398 67.46C77.4798 68.11 77.0598 68.75 76.6498 69.39C76.2398 70.03 76.0698 70.39 75.8198 70.86C76.5698 70.55 77.3998 70.19 78.2098 69.79ZM84.5898 64.32C84.6812 64.2894 84.766 64.2419 84.8398 64.18C84.8398 64.32 84.7398 64.45 84.6798 64.58C84.6696 64.4908 84.6388 64.4052 84.5898 64.33V64.32Z" fill="#999A1C"/>
<path d="M76.1196 66C76.1196 64.85 76.1196 63.7 75.9896 62.55L75.8996 61.65L75.8396 61.07C75.8271 60.8678 75.797 60.667 75.7496 60.47L75.6296 59.77C74.9482 55.8618 73.4302 52.147 71.1796 48.88C70.332 50.8956 69.9066 53.0636 69.9296 55.25C69.9296 55.9 69.9896 56.54 70.0396 57.15V57.52C70.0396 57.83 70.1496 58.17 70.2096 58.45C70.4665 59.6208 70.8005 60.7733 71.2096 61.9C71.5778 62.9348 72.0293 63.9381 72.5596 64.9C73.1296 65.99 73.7396 67.05 74.4096 68.09C74.9196 68.9 75.4096 69.62 75.8996 70.31C76.0473 68.8781 76.1207 67.4395 76.1196 66V66ZM72.8396 53.09C72.8695 52.9415 72.8695 52.7885 72.8396 52.64C72.9996 52.8 73.1596 52.97 73.3096 53.14C73.1544 53.11 72.9948 53.11 72.8396 53.14V53.09Z" fill="#999A1C"/>
<path d="M78.2598 66.9199C78.8979 65.953 79.4822 64.9514 80.0098 63.9199C80.1598 63.6499 80.2898 63.3899 80.4298 63.1199L80.6898 62.5899L80.9398 62.0399C81.0298 61.8199 81.1298 61.5999 81.2198 61.3899C82.7598 57.7329 83.4898 53.7859 83.3598 49.8199C81.5519 51.0556 80.0197 52.6525 78.8598 54.5099C78.5198 55.0499 78.2098 55.5999 77.9198 56.1599L77.7898 56.3999V56.4999L77.4298 57.3699C77.0167 58.4919 76.6826 59.6414 76.4298 60.8099C76.1788 61.8854 76.0116 62.9787 75.9298 64.0799C75.8198 65.2999 75.7598 66.5199 75.7598 67.7499C75.7598 68.7499 75.7598 69.5799 75.8198 70.4199C76.6198 69.2999 77.4798 68.1299 78.2598 66.9199V66.9199ZM82.4998 54.2599C82.603 54.1454 82.6783 54.0085 82.7198 53.8599C82.7198 54.0899 82.8098 54.2999 82.8398 54.5099C82.7421 54.4072 82.627 54.3225 82.4998 54.2599V54.2599Z" fill="#999A1C"/>
<path d="M78.2098 69.79C78.8598 69.46 79.4998 69.12 80.1398 68.74L80.6298 68.45L80.9398 68.25L81.2498 68.03L81.6098 67.77C83.6196 66.2927 85.2875 64.3998 86.4998 62.22C85.1271 62.3106 83.7869 62.678 82.5598 63.3C82.2098 63.48 81.8698 63.68 81.5598 63.89L81.4098 63.98L80.9298 64.34C80.3381 64.8067 79.78 65.3146 79.2598 65.86C78.7819 66.3608 78.3407 66.8956 77.9398 67.46C77.4798 68.11 77.0598 68.75 76.6498 69.39C76.2398 70.03 76.0698 70.39 75.8198 70.86C76.5698 70.55 77.3998 70.19 78.2098 69.79ZM84.5898 64.32C84.6812 64.2894 84.766 64.2419 84.8398 64.18C84.8398 64.32 84.7398 64.45 84.6798 64.58C84.6696 64.4908 84.6388 64.4052 84.5898 64.33V64.32Z" fill="#999A1C"/>
<path d="M132.66 83.84L120.66 89.63C120.2 89.8389 119.806 90.1706 119.522 90.5887C119.238 91.0068 119.075 91.4951 119.05 92C119.031 92.503 119.148 93.0019 119.389 93.4438C119.63 93.8857 119.986 94.2541 120.42 94.51L149 111.18C149.618 111.54 150.351 111.648 151.046 111.48C151.741 111.313 152.345 110.882 152.73 110.28L159.67 99.49" fill="#A1482D"/>
<path d="M198.19 55.92L102.12 0.579975C101.462 0.201177 100.716 0.00211068 99.9563 0.00274811C99.1969 0.00338553 98.4511 0.203704 97.7936 0.583606C97.1361 0.963509 96.5901 1.50964 96.2103 2.1672C95.8305 2.82476 95.6304 3.57063 95.6299 4.32997V61.91C95.6337 62.5374 95.8019 63.1529 96.1178 63.695C96.4336 64.2372 96.886 64.6871 97.4299 65L199.85 124.1C200.201 124.306 200.601 124.416 201.009 124.418C201.417 124.42 201.817 124.314 202.171 124.111C202.524 123.908 202.818 123.615 203.021 123.262C203.225 122.908 203.331 122.508 203.33 122.1V64.78C203.329 62.9813 202.854 61.2146 201.951 59.6588C201.049 58.1029 199.751 56.8132 198.19 55.92V55.92Z" fill="#F47B56"/>
<path d="M102.13 4.92998L195.3 58.52C196.293 59.0937 197.119 59.9187 197.693 60.9121C198.267 61.9056 198.569 63.0326 198.57 64.18V107.34C198.561 107.749 198.447 108.149 198.237 108.5C198.027 108.852 197.73 109.142 197.374 109.344C197.018 109.546 196.615 109.651 196.206 109.651C195.797 109.65 195.395 109.543 195.04 109.34L99.9998 54.9C99.6461 54.6981 99.3512 54.4074 99.1442 54.0567C98.9373 53.7059 98.8255 53.3072 98.8198 52.9V6.82998C98.8227 6.44716 98.9255 6.07173 99.1179 5.74078C99.3103 5.40983 99.5858 5.13482 99.917 4.94293C100.248 4.75104 100.624 4.64892 101.007 4.64665C101.39 4.64437 101.766 4.74203 102.1 4.92998H102.13Z" fill="white"/>
<path d="M141.332 86.3399C142.433 86.1279 143.129 84.9361 142.887 83.6779C142.645 82.4197 141.556 81.5716 140.455 81.7836C139.354 81.9956 138.658 83.1874 138.9 84.4456C139.142 85.7038 140.231 86.5519 141.332 86.3399Z" fill="#AB643C"/>
<path opacity="0.32" d="M127.17 63.4799L170.47 89.4899L191.86 77.0599L153.64 54.8199" fill="url(#paint3_linear_288_19)"/>
<path d="M180.68 58.31L133.87 29.77C133.619 29.6251 133.335 29.55 133.045 29.5524C132.756 29.5548 132.473 29.6347 132.225 29.7837C131.977 29.9328 131.773 30.1455 131.635 30.3998C131.497 30.6542 131.43 30.9408 131.44 31.23V47.49C131.435 47.7844 131.508 48.0748 131.65 48.3327C131.792 48.5905 131.999 48.8067 132.25 48.96L179.06 76.89C179.305 77.0303 179.583 77.1042 179.865 77.1042C180.147 77.1042 180.425 77.0303 180.67 76.89C180.913 76.7453 181.114 76.5404 181.254 76.2951C181.394 76.0498 181.469 75.7725 181.47 75.49L181.71 60.33C181.73 59.9326 181.646 59.5367 181.465 59.1822C181.284 58.8276 181.014 58.5269 180.68 58.31V58.31Z" fill="#E2AC00"/>
<path d="M169.48 66.6699C171.16 69.0199 174.11 69.6699 176.06 68.1499C178.01 66.6299 178.25 63.4699 176.57 61.1499C174.89 58.8299 171.94 58.1499 169.98 59.6799C168.02 61.2099 167.8 64.3299 169.48 66.6699Z" fill="white"/>
<path d="M164.89 55.4099L145.79 43.9099C145.626 43.8413 145.444 43.8344 145.276 43.8905C145.108 43.9465 144.966 44.0618 144.876 44.2148C144.787 44.3677 144.756 44.5479 144.79 44.7218C144.824 44.8957 144.92 45.0514 145.06 45.1599L164.15 56.6499C164.312 56.7164 164.492 56.7226 164.658 56.6674C164.824 56.6121 164.964 56.4991 165.054 56.3488C165.144 56.1986 165.176 56.0212 165.146 55.8488C165.116 55.6765 165.025 55.5208 164.89 55.4099V55.4099Z" fill="#F2F2F2"/>
<path d="M164.1 60.08L137.78 44.24C137.619 44.1831 137.444 44.1851 137.284 44.2455C137.125 44.306 136.992 44.4209 136.91 44.5699C136.827 44.7174 136.798 44.8895 136.829 45.0559C136.86 45.2223 136.949 45.3725 137.08 45.4799L163.37 61.33C163.533 61.4069 163.719 61.4198 163.891 61.3661C164.063 61.3124 164.209 61.196 164.3 61.0399C164.404 60.8801 164.441 60.6861 164.403 60.4992C164.366 60.3124 164.257 60.1476 164.1 60.0399V60.08Z" fill="#F2F2F2"/>
<path d="M171.34 61.46L124.55 32.93C124.299 32.7852 124.014 32.71 123.725 32.7125C123.436 32.7149 123.152 32.7947 122.904 32.9438C122.656 33.0928 122.453 33.3055 122.315 33.5599C122.177 33.8142 122.109 34.1009 122.12 34.39V50.64C122.115 50.9344 122.187 51.2249 122.329 51.4827C122.471 51.7405 122.678 51.9568 122.93 52.11L169.74 80C169.987 80.1456 170.269 80.2219 170.556 80.2209C170.843 80.2199 171.125 80.1417 171.372 79.9944C171.618 79.8471 171.82 79.6362 171.957 79.3839C172.094 79.1315 172.161 78.8469 172.15 78.56L172.4 63.41C172.412 63.0132 172.321 62.62 172.135 62.2692C171.949 61.9184 171.675 61.6223 171.34 61.41V61.46Z" fill="#F47B56"/>
<path d="M160.14 69.8299C161.82 72.1699 164.77 72.8299 166.72 71.2999C168.67 69.7699 168.91 66.6199 167.23 64.2999C165.55 61.9799 162.6 61.2999 160.64 62.8299C158.68 64.3599 158.46 67.4799 160.14 69.8299Z" fill="white"/>
<path d="M155.54 58.56L136.44 47.07C136.276 46.9818 136.084 46.9606 135.905 47.0107C135.726 47.0609 135.573 47.1785 135.478 47.3389C135.384 47.4993 135.355 47.69 135.399 47.8711C135.442 48.0521 135.553 48.2094 135.71 48.31L154.8 59.81C154.963 59.8847 155.149 59.8963 155.32 59.8428C155.492 59.7893 155.638 59.6744 155.73 59.52C155.783 59.4413 155.819 59.3529 155.838 59.26C155.856 59.167 155.856 59.0714 155.837 58.9785C155.819 58.8856 155.782 58.7973 155.729 58.7186C155.677 58.6399 155.609 58.5724 155.53 58.52L155.54 58.56Z" fill="#F2F2F2"/>
<path d="M154.75 63.26L128.44 47.39C128.277 47.313 128.091 47.3001 127.918 47.3538C127.746 47.4075 127.6 47.5239 127.51 47.68C127.406 47.8398 127.369 48.0338 127.406 48.2207C127.444 48.4075 127.553 48.5724 127.71 48.68L154 64.48C154.163 64.5569 154.349 64.5698 154.521 64.5161C154.694 64.4624 154.839 64.346 154.93 64.19C155.034 64.0302 155.071 63.8361 155.033 63.6493C154.996 63.4624 154.887 63.2976 154.73 63.19L154.75 63.26Z" fill="#F2F2F2"/>
<path d="M159.6 63.37L112.8 34.85C112.55 34.7017 112.265 34.6237 111.974 34.6245C111.683 34.6253 111.398 34.7047 111.149 34.8544C110.9 35.0041 110.696 35.2185 110.559 35.4748C110.422 35.7311 110.356 36.0197 110.37 36.31V52.56C110.369 52.8535 110.444 53.1421 110.588 53.398C110.731 53.6538 110.939 53.8681 111.19 54.02L158 82C158.248 82.1447 158.531 82.2203 158.818 82.219C159.105 82.2177 159.387 82.1396 159.634 81.9926C159.881 81.8457 160.084 81.6354 160.222 81.3835C160.36 81.1315 160.429 80.8472 160.42 80.56L160.66 65.41C160.672 65.0145 160.581 64.6226 160.397 64.2722C160.213 63.9219 159.942 63.6249 159.61 63.41L159.6 63.37Z" fill="#68E1FD"/>
<path d="M159.6 63.37L112.8 34.85C112.55 34.7017 112.265 34.6237 111.974 34.6245C111.683 34.6253 111.398 34.7047 111.149 34.8544C110.9 35.0041 110.696 35.2185 110.559 35.4748C110.422 35.7311 110.356 36.0197 110.37 36.31V52.56C110.369 52.8535 110.444 53.1421 110.588 53.398C110.731 53.6538 110.939 53.8681 111.19 54.02L158 82C158.248 82.1447 158.531 82.2203 158.818 82.219C159.105 82.2177 159.387 82.1396 159.634 81.9926C159.881 81.8457 160.084 81.6354 160.222 81.3835C160.36 81.1315 160.429 80.8472 160.42 80.56L160.66 65.41C160.672 65.0145 160.581 64.6226 160.397 64.2722C160.213 63.9219 159.942 63.6249 159.61 63.41L159.6 63.37Z" fill="#68E1FD"/>
<path d="M148.39 71.7399C150.07 74.0899 153.02 74.7399 154.98 73.2099C156.94 71.6799 157.16 68.5399 155.48 66.2099C153.8 63.8799 150.85 63.2099 148.89 64.7399C146.93 66.2699 146.73 69.3899 148.39 71.7399Z" fill="white"/>
<path d="M143.8 60.47L124.7 49C124.537 48.9314 124.354 48.9245 124.186 48.9806C124.018 49.0366 123.876 49.1519 123.787 49.3049C123.697 49.4578 123.667 49.638 123.7 49.8119C123.734 49.9858 123.83 50.1415 123.97 50.25L143.06 61.74C143.223 61.8194 143.41 61.8336 143.582 61.7797C143.755 61.7258 143.901 61.6078 143.99 61.45C144.043 61.3713 144.079 61.2829 144.098 61.19C144.116 61.0971 144.116 61.0014 144.097 60.9085C144.079 60.8156 144.042 60.7273 143.989 60.6486C143.937 60.5699 143.869 60.5024 143.79 60.45L143.8 60.47Z" fill="#F2F2F2"/>
<path d="M143 65.15L116.69 49.31C116.526 49.2413 116.344 49.2344 116.176 49.2905C116.008 49.3466 115.866 49.4618 115.776 49.6148C115.687 49.7677 115.656 49.948 115.69 50.1219C115.724 50.2957 115.82 50.4515 115.96 50.56L142.27 66.4C142.434 66.476 142.62 66.4884 142.793 66.4347C142.966 66.3811 143.113 66.2652 143.205 66.1095C143.297 65.9538 143.328 65.7695 143.292 65.5922C143.256 65.4149 143.155 65.2573 143.01 65.15H143Z" fill="#F2F2F2"/>
<path d="M98.1796 61.78C95.1555 64.3826 92.869 67.7347 91.5496 71.5C89.2196 77.93 94.9996 88.44 94.9996 88.44L104.06 81.27" fill="#FF8F6F"/>
<path d="M97.1997 146.8L94.7397 145.45L95.3897 141.93C95.3897 141.93 99.0497 142.28 99.3897 143.58" fill="#003B94"/>
<path d="M98.0997 146.75C98.6597 146.41 99.2297 146.11 99.8097 145.81C101.23 145.03 103.28 144.22 104.16 142.76C104.337 142.466 104.421 142.124 104.4 141.781C104.378 141.438 104.253 141.11 104.04 140.84C102.75 139.28 99.9397 141.84 98.4897 140.11C98.2097 139.77 98.0797 134.37 98.0797 134.37L92.5997 135.84C92.5997 135.84 91.6697 146.71 91.7697 147.38C91.8697 148.05 93.7697 148.67 93.7697 148.67C94.3313 148.55 94.8666 148.33 95.3497 148.02C95.9297 147.61 95.3497 142.51 96.1397 143.22C96.9297 143.93 97.1897 146.73 97.1897 146.73C97.4914 146.771 97.7966 146.777 98.0997 146.75V146.75Z" fill="#F47B56"/>
<path d="M107.67 152.06L105.21 150.72L105.85 147.21C105.85 147.21 109.51 147.56 109.85 148.85" fill="#003B94"/>
<path d="M108.59 152C109.15 151.65 109.73 151.35 110.3 151.05C111.72 150.27 113.77 149.47 114.65 148.05C114.827 147.754 114.91 147.411 114.889 147.066C114.868 146.722 114.742 146.392 114.53 146.12C113.24 144.56 110.43 147.12 108.99 145.4C108.7 145.06 108.57 139.65 108.57 139.65L103.09 141.13C103.09 141.13 102.15 152.04 102.26 152.68C102.37 153.32 104.26 153.96 104.26 153.96C104.822 153.846 105.358 153.629 105.84 153.32C106.41 152.9 105.84 147.8 106.62 148.52C107.4 149.24 107.68 152.02 107.68 152.02C107.983 152.052 108.289 152.046 108.59 152V152Z" fill="#F47B56"/>
<path d="M89.8097 116.73L88.1997 138.31C88.1997 138.31 90.7697 141.86 99.3997 139.89L99.4797 125.34" fill="#3E2928"/>
<path d="M99.7699 121C99.5899 122.86 99.7699 143.36 99.7699 143.36C99.7699 143.36 102.16 147.83 112.55 143.36L112.4 125.94" fill="#3E2928"/>
<path d="M89 123.86C89.7 124.35 89.95 121.86 90.69 122.26C93.384 123.823 96.2454 125.077 99.22 126H99.28C99.4275 125.94 99.5925 125.94 99.74 126C99.8139 126.028 99.8813 126.071 99.9381 126.126C99.9948 126.181 100.04 126.247 100.07 126.32C101.905 126.862 103.772 127.29 105.66 127.6C108.09 127.99 110.09 126.2 112.58 126.07C112.58 116.54 112.58 89.42 108.58 83.63L96.58 79.63C96.52 80.63 90.75 87.31 90.89 95.46C90.8694 102.391 90.4554 109.316 89.65 116.2C89.6 116.64 89 123.34 89 123.86V123.86Z" fill="#3E2928"/>
<path d="M109.67 72.66L108.57 83.59C108.57 83.59 99.57 83.95 95.75 81.29V72" fill="#FF8F6F"/>
<path d="M121.07 65.4599L120.15 66.7099C120.641 65.6964 121.072 64.6546 121.44 63.5899C121.7 62.8699 120.53 62.5899 120.28 63.2999L120.14 63.6799C120.25 63.2899 120.36 62.8999 120.46 62.5099C120.498 62.3548 120.473 62.1907 120.391 62.0538C120.308 61.9169 120.175 61.8184 120.02 61.7799C119.865 61.7415 119.701 61.7662 119.564 61.8487C119.427 61.9312 119.328 62.0648 119.29 62.2199C119.042 63.2358 118.738 64.2373 118.38 65.2199C118.578 64.3498 118.722 63.468 118.81 62.5799C118.89 61.8199 117.68 61.8499 117.61 62.5799C117.511 63.5928 117.33 64.5961 117.07 65.5799C117.067 65.2447 117.037 64.9102 116.98 64.5799C116.97 64.4937 116.942 64.4106 116.897 64.3364C116.852 64.2621 116.792 64.1985 116.72 64.1499C116.72 64.0199 116.65 63.8899 116.61 63.7499C116.561 63.6166 116.468 63.5041 116.346 63.4313C116.224 63.3585 116.08 63.3297 115.94 63.3499C115.8 63.3711 115.672 63.4408 115.579 63.5469C115.486 63.653 115.433 63.7887 115.43 63.9299L115.35 68.4299C115.135 68.8991 114.852 69.3339 114.51 69.7199C115.09 70.1154 115.647 70.5427 116.18 70.9999C116.66 71.4004 117.118 71.8278 117.55 72.2799C117.93 71.7999 118.3 71.2799 118.66 70.8199L118.78 70.6899C119.846 69.0966 120.953 67.5366 122.1 66.0099C122.57 65.4399 121.52 64.8499 121.07 65.4599V65.4599Z" fill="#FFB5A9"/>
<path d="M104 62.6899C104 62.6899 108.23 63.8299 110 66.5499C111.073 68.4345 112.019 70.3889 112.83 72.3999L115.96 67.5399C115.96 67.5399 119.76 68.7099 121.26 70.5399C121.26 70.5399 116.76 80.3799 112.83 81.2199C108.9 82.0599 104.74 75.4499 104.74 75.4499C104.74 75.4499 103.88 78.2099 104.05 75.2599" fill="#FF8F6F"/>
<path d="M106.68 73.2099C105.454 72.2051 104.527 70.884 104 69.3899C103.5 67.6599 104.13 66.1399 104.72 64.5299C105.368 62.9374 105.743 61.2471 105.83 59.5299C105.826 57.86 105.74 56.1912 105.57 54.5299C105.56 54.4569 105.56 54.3829 105.57 54.3099C105.01 52.4099 103.85 50.7999 101.57 50.6099C95.6596 50.1099 95.3196 56.6099 95.3696 59.3199C95.4196 62.0299 95.6896 63.7799 93.7296 64.8899C91.7696 65.9999 90.3496 68.8899 92.2296 71.2899C94.1096 73.6899 92.4196 72.7799 91.1696 74.8799C89.9196 76.9799 90.2496 79.5899 92.8096 80.5399C95.3696 81.4899 107.27 79.7099 108.36 78.6099C108.749 78.1669 108.95 77.5891 108.92 76.9999C108.652 75.5223 107.86 74.1909 106.69 73.2499L106.68 73.2099Z" fill="#007F68"/>
<path d="M112.49 19.21C113.489 20.6537 114.067 22.3467 114.16 24.1C114.276 24.901 114.083 25.7164 113.62 26.38C113.421 26.5969 113.157 26.742 112.867 26.7926C112.578 26.8433 112.28 26.7966 112.02 26.66C111.696 26.5287 111.403 26.3311 111.16 26.08C110.941 25.8765 110.756 25.6403 110.61 25.38L110.45 25.08C110.409 25.1593 110.359 25.2332 110.3 25.3C110.144 25.4158 109.962 25.4914 109.77 25.52C109.433 25.5897 109.083 25.5512 108.77 25.41C108.06 25.0993 107.468 24.5703 107.08 23.9C106.619 23.1674 106.364 22.3249 106.34 21.46C106.29 21.1139 106.319 20.7613 106.422 20.4275C106.526 20.0937 106.703 19.7872 106.94 19.53C107.143 19.3349 107.402 19.2065 107.681 19.1618C107.959 19.1172 108.245 19.1584 108.5 19.28C108.754 19.3894 108.99 19.5379 109.2 19.72C109.376 19.8677 109.531 20.0394 109.66 20.23L109.78 20.44V19.86L111.07 20.36L111.19 23.98C111.199 24.2411 111.282 24.4943 111.43 24.71C111.552 24.9153 111.733 25.0791 111.95 25.18C112.57 25.42 112.86 24.88 112.82 23.57C112.751 22.2637 112.318 21.0027 111.57 19.93C110.903 18.8366 109.905 17.9851 108.72 17.5C108.291 17.2846 107.808 17.202 107.333 17.2625C106.857 17.3231 106.41 17.5242 106.05 17.84C105.67 18.2339 105.383 18.7077 105.21 19.2268C105.037 19.7458 104.982 20.297 105.05 20.84C105.127 22.2157 105.572 23.5454 106.34 24.69C106.948 25.8286 107.915 26.7352 109.09 27.27C109.495 27.4382 109.93 27.5232 110.37 27.52C110.659 27.5378 110.947 27.4828 111.21 27.36L111.47 27.22L112.24 28.67L112.12 28.76C111.997 28.8281 111.87 28.8882 111.74 28.94C111.532 29.0289 111.313 29.0894 111.09 29.12C110.808 29.1603 110.521 29.1603 110.24 29.12C109.866 29.0729 109.5 28.9788 109.15 28.84C108.159 28.4162 107.279 27.7694 106.58 26.95C105.744 26.0324 105.068 24.9812 104.58 23.84C104.093 22.7479 103.815 21.5744 103.76 20.38C103.688 19.3776 103.892 18.3748 104.35 17.48C104.729 16.7294 105.385 16.1556 106.18 15.88C107.009 15.6019 107.913 15.6484 108.71 16.01C110.27 16.6663 111.587 17.7916 112.48 19.23L112.49 19.21ZM109.66 23.79C109.768 23.6494 109.847 23.4883 109.891 23.3165C109.936 23.1447 109.946 22.9656 109.92 22.79C109.906 22.3714 109.789 21.9627 109.58 21.6C109.402 21.2886 109.128 21.043 108.8 20.9C108.674 20.8315 108.53 20.8043 108.388 20.8223C108.247 20.8402 108.114 20.9024 108.01 21C107.897 21.1248 107.814 21.2729 107.766 21.4337C107.717 21.5945 107.705 21.7639 107.73 21.93C107.742 22.3547 107.866 22.7687 108.09 23.13C108.275 23.4568 108.563 23.7134 108.91 23.86C109.03 23.9224 109.168 23.9454 109.302 23.9256C109.437 23.9059 109.562 23.8445 109.66 23.75" fill="#F47B56"/>
<path d="M188.44 88.85C189.442 90.2922 190.02 91.9861 190.11 93.74C190.226 94.5409 190.033 95.356 189.57 96.0199C189.37 96.2352 189.105 96.3784 188.816 96.4272C188.526 96.4761 188.229 96.4278 187.97 96.29C187.647 96.1621 187.354 95.9679 187.11 95.72C186.893 95.5109 186.708 95.2718 186.56 95.01L186.4 94.71C186.359 94.7892 186.309 94.8632 186.25 94.93C186.095 95.049 185.913 95.128 185.72 95.16C185.399 95.2191 185.068 95.1808 184.77 95.05C184.061 94.7373 183.472 94.2042 183.09 93.53C182.621 92.8007 182.361 91.9566 182.34 91.0899C182.291 90.7447 182.318 90.3928 182.42 90.0593C182.522 89.7258 182.696 89.4188 182.93 89.16C183.132 88.9623 183.391 88.8322 183.67 88.7874C183.949 88.7427 184.236 88.7855 184.49 88.91C184.75 89.0095 184.987 89.159 185.19 89.35C185.367 89.5002 185.525 89.6715 185.66 89.86L185.78 90.07V89.5L187.06 89.99L187.19 93.61C187.201 93.8662 187.28 94.1149 187.42 94.33C187.543 94.5385 187.728 94.703 187.95 94.8C188.6 95.05 188.86 94.51 188.82 93.19C188.759 91.8869 188.329 90.6279 187.58 89.56C186.91 88.4732 185.917 87.6234 184.74 87.13C184.311 86.9124 183.827 86.8276 183.35 86.8864C182.872 86.9452 182.423 87.1449 182.06 87.46C181.68 87.8538 181.393 88.3277 181.22 88.8467C181.047 89.3658 180.992 89.917 181.06 90.46C181.133 91.8365 181.579 93.1674 182.35 94.31C182.983 95.4189 183.958 96.2926 185.13 96.8C185.535 96.9713 185.97 97.0597 186.41 97.06C186.698 97.0761 186.985 97.0247 187.25 96.91L187.51 96.76L188.28 98.21L188.16 98.3C188.037 98.3681 187.91 98.4282 187.78 98.48C187.572 98.5688 187.354 98.6294 187.13 98.66C186.845 98.6999 186.555 98.6999 186.27 98.66C185.9 98.6116 185.537 98.5175 185.19 98.38C184.2 97.954 183.321 97.3075 182.62 96.49C181.782 95.5705 181.105 94.5156 180.62 93.37C180.128 92.283 179.85 91.1118 179.8 89.92C179.728 88.9207 179.932 87.9209 180.39 87.03C180.771 86.2763 181.426 85.6967 182.22 85.41C183.054 85.1419 183.957 85.1881 184.76 85.54C186.297 86.239 187.582 87.3947 188.44 88.85V88.85ZM185.6 93.42C185.713 93.2819 185.796 93.1214 185.842 92.949C185.889 92.7766 185.898 92.5962 185.87 92.42C185.859 92.0009 185.742 91.5915 185.53 91.23C185.359 90.9141 185.088 90.6642 184.76 90.5199C184.632 90.4535 184.487 90.4275 184.344 90.4454C184.201 90.4632 184.067 90.5241 183.96 90.62C183.849 90.7461 183.766 90.894 183.716 91.0542C183.666 91.2144 183.65 91.3833 183.67 91.55C183.692 91.9713 183.819 92.3805 184.04 92.74C184.225 93.0696 184.513 93.3295 184.86 93.48C184.979 93.5416 185.115 93.5641 185.248 93.5443C185.38 93.5246 185.504 93.4636 185.6 93.37" fill="#F47B56"/>
<path opacity="0.25" d="M60.25 116.27L38.48 103.88L16.71 116.29C16.71 116.29 28.82 123.86 39.66 130.21C46.55 125.35 52.66 119.79 60.25 116.27V116.27Z" fill="url(#paint4_linear_288_19)"/>
<path fill-rule="evenodd" clip-rule="evenodd" d="M20.9297 81.47V108.41L41.9097 120.42L65.6097 106.41V79.48" fill="black"/>
<path fill-rule="evenodd" clip-rule="evenodd" d="M20.9297 81.47V108.41L41.9097 120.42L65.6097 106.41V79.48" fill="#FF9271"/>
<path d="M41.9097 93.49V120.42L65.6097 106.41V79.48L41.9097 93.49V93.49Z" fill="#DF5C34"/>
<path d="M20.9297 81.47L45.2797 67.59L65.6097 79.48L41.9097 93.49L20.9297 81.47V81.47Z" fill="#F47B56"/>
<path d="M42.4699 73.78C44.9372 73.6092 47.4016 74.1506 49.5699 75.34C50.8199 76.07 51.4999 76.83 51.5699 77.63C51.598 78.0652 51.4898 78.4984 51.2604 78.8693C51.031 79.2403 50.6918 79.5306 50.2899 79.7C49.8308 79.9807 49.3268 80.1803 48.7999 80.29C48.3641 80.3914 47.9174 80.4384 47.4699 80.43H46.9899C47.0304 80.5403 47.0606 80.6541 47.0799 80.77C47.0593 81.0444 46.9698 81.3092 46.8199 81.54C46.5599 81.9566 46.1987 82.3006 45.7699 82.54C44.7566 83.1386 43.5966 83.4433 42.4199 83.42C41.2213 83.4412 40.0394 83.1371 38.9999 82.54C38.5844 82.356 38.2234 82.0679 37.9519 81.7035C37.6803 81.3391 37.5074 80.9108 37.4499 80.46C37.4556 80.0404 37.5784 79.6308 37.8046 79.2774C38.0308 78.924 38.3513 78.6408 38.7299 78.46C39.0857 78.2523 39.4697 78.0974 39.8699 78C40.1955 77.9045 40.5311 77.8475 40.8699 77.83H41.2199L40.5799 77.44L42.3799 76.32L46.5499 78.78C46.8695 78.9524 47.2269 79.0427 47.5899 79.0427C47.953 79.0427 48.3104 78.9524 48.6299 78.78C49.5099 78.22 49.1899 77.5 47.6799 76.6C46.0678 75.7136 44.2356 75.3076 42.3999 75.43C40.4623 75.4518 38.5661 75.994 36.9099 77C35.3999 78 34.6499 79.07 34.6599 80.38C34.6699 81.69 35.4599 82.81 37.0199 83.72C38.7231 84.652 40.6508 85.095 42.5899 85C44.5264 85.0328 46.4339 84.5274 48.0999 83.54C48.6749 83.1976 49.1914 82.7654 49.6299 82.26C49.9198 81.9473 50.1382 81.5754 50.2699 81.17L50.3599 80.76L52.7399 80.9V81.11C52.6939 81.3063 52.6371 81.4999 52.5699 81.69C52.4598 81.9885 52.3225 82.2764 52.1599 82.55C51.9125 82.9122 51.6276 83.2474 51.3099 83.55C50.8904 83.9559 50.4276 84.3147 49.9299 84.62C48.4995 85.4753 46.9171 86.0458 45.2699 86.3C43.4721 86.6098 41.6371 86.6402 39.8299 86.39C38.1879 86.1981 36.6004 85.6814 35.1599 84.87C33.9996 84.2491 33.0703 83.2707 32.5099 82.08C32.2822 81.5615 32.1646 81.0013 32.1646 80.435C32.1646 79.8686 32.2822 79.3085 32.5099 78.79C33.0587 77.5752 33.9798 76.5665 35.1399 75.91C37.3464 74.5505 39.8786 73.8112 42.4699 73.77V73.78ZM44.7999 80.41C44.7607 80.1898 44.6669 79.9829 44.5271 79.8082C44.3874 79.6336 44.2062 79.4966 43.9999 79.41C43.4933 79.1271 42.92 78.9855 42.3399 79C41.7953 78.979 41.2564 79.1181 40.7899 79.4C40.601 79.4909 40.4411 79.6325 40.328 79.8092C40.215 79.9858 40.1533 80.1903 40.1499 80.4C40.1781 80.6172 40.262 80.8234 40.3934 80.9986C40.5248 81.1739 40.6993 81.3121 40.8999 81.4C41.4186 81.6913 42.0052 81.8396 42.5999 81.83C43.1724 81.8384 43.7362 81.6897 44.2299 81.4C44.422 81.317 44.5832 81.1759 44.6908 80.9965C44.7984 80.8171 44.8471 80.6085 44.8299 80.4" fill="#3E2928"/>
</g>
<defs>
<linearGradient id="paint0_linear_288_19" x1="137.045" y1="101.329" x2="130.281" y2="110.841" gradientUnits="userSpaceOnUse">
<stop stop-color="#7F3500"/>
<stop offset="1" stop-color="#231F20" stop-opacity="0"/>
</linearGradient>
<linearGradient id="paint1_linear_288_19" x1="108.771" y1="144.053" x2="94.265" y2="160.132" gradientUnits="userSpaceOnUse">
<stop offset="0.03" stop-color="#7F3500"/>
<stop offset="1" stop-color="#231F20" stop-opacity="0"/>
</linearGradient>
<linearGradient id="paint2_linear_288_19" x1="76.7761" y1="75.99" x2="65.7432" y2="87.9383" gradientUnits="userSpaceOnUse">
<stop stop-color="#843C09" stop-opacity="0.85"/>
<stop offset="1" stop-color="#231F20" stop-opacity="0"/>
</linearGradient>
<linearGradient id="paint3_linear_288_19" x1="179.668" y1="75.4463" x2="173.129" y2="70.2175" gradientUnits="userSpaceOnUse">
<stop stop-color="white" stop-opacity="0"/>
<stop offset="0.99" stop-color="#DC841E"/>
</linearGradient>
<linearGradient id="paint4_linear_288_19" x1="52.9582" y1="110.389" x2="38.2638" y2="126.744" gradientUnits="userSpaceOnUse">
<stop offset="0.03" stop-color="#7F3500"/>
<stop offset="1" stop-color="#231F20" stop-opacity="0"/>
</linearGradient>
<clipPath id="clip0_288_19">
<rect width="236.85" height="179.57" fill="white"/>
</clipPath>
</defs>
</svg>
