<svg width="191" height="184" viewBox="0 0 191 184" fill="none" xmlns="http://www.w3.org/2000/svg">
<g filter="url(#filter0_d_288_11)">
<path d="M50.9302 29.881V83.751L92.8982 107.786L140.285 79.761V25.891" fill="black"/>
</g>
<path d="M50.9302 29.881V83.751L92.8982 107.786L140.285 79.761V25.891" fill="#FF9271"/>
<path d="M92.8994 53.917V107.787L140.286 79.761V25.891L92.8994 53.917Z" fill="#DF5C34"/>
<path d="M50.9302 29.88L99.6242 2.12598L140.286 25.893L92.8992 53.918L50.9302 29.88Z" fill="#F47B56"/>
<path d="M94.013 14.49C98.9501 14.1566 103.88 15.2423 108.22 17.619C110.706 19.081 112.064 20.607 112.256 22.198C112.448 23.788 111.628 25.173 109.694 26.341C108.777 26.9078 107.766 27.3073 106.709 27.521C105.84 27.726 104.949 27.816 104.057 27.79L103.083 27.713C103.174 27.93 103.234 28.159 103.263 28.393C103.232 28.9466 103.055 29.4822 102.75 29.945C102.243 30.8053 101.519 31.5173 100.65 32.01C98.6253 33.213 96.3046 33.826 93.95 33.78C91.5135 33.8455 89.1062 33.2375 86.993 32.023C84.994 30.843 83.97 29.457 83.893 27.867C83.9005 27.0248 84.1447 26.2017 84.5977 25.4918C85.0508 24.7818 85.6943 24.2136 86.455 23.852C87.1848 23.3968 87.9795 23.0553 88.812 22.839C89.4758 22.6473 90.1591 22.5312 90.849 22.493H91.554L90.272 21.723L93.872 19.479L102.212 24.391C102.85 24.7343 103.563 24.9141 104.287 24.9141C105.011 24.9141 105.724 24.7343 106.362 24.391C108.131 23.288 107.499 21.839 104.467 20.043C101.245 18.2687 97.5816 17.4542 93.911 17.696C90.0205 17.7437 86.2146 18.838 82.893 20.864C79.87 22.754 78.371 25.007 78.397 27.624C78.397 30.188 79.998 32.472 83.111 34.306C86.5087 36.2063 90.3674 37.1254 94.257 36.961C98.1292 37.0242 101.943 36.0116 105.274 34.036C106.427 33.3527 107.461 32.4864 108.336 31.471C108.921 30.8496 109.358 30.1045 109.616 29.291L109.796 28.483L114.549 28.752C114.557 28.897 114.557 29.042 114.549 29.188C114.462 29.5806 114.346 29.9663 114.203 30.342C113.997 30.9449 113.721 31.522 113.383 32.062C112.895 32.7887 112.328 33.4594 111.693 34.062C110.855 34.8704 109.931 35.5846 108.938 36.192C106.078 37.9088 102.91 39.0502 99.612 39.552C96.0182 40.1796 92.3486 40.2444 88.735 39.744C85.4501 39.3568 82.2752 38.3189 79.396 36.691C77.0711 35.46 75.2095 33.5065 74.092 31.125C73.6353 30.086 73.3994 28.9634 73.3994 27.8285C73.3994 26.6935 73.6353 25.571 74.092 24.532C75.1989 22.1069 77.0414 20.092 79.358 18.773C83.7719 16.06 88.8327 14.5806 94.013 14.489V14.49ZM98.676 27.752C98.506 26.861 97.906 26.112 97.075 25.751C96.0658 25.1563 94.9163 24.8418 93.745 24.84C92.6561 24.7987 91.5787 25.0749 90.644 25.635C90.2673 25.8188 89.9486 26.1027 89.7226 26.4557C89.4967 26.8086 89.3722 27.217 89.363 27.636C89.48 28.526 90.053 29.29 90.875 29.65C91.9071 30.2398 93.0805 30.5371 94.269 30.51C95.4116 30.5385 96.5392 30.245 97.523 29.663C97.8877 29.4959 98.196 29.2262 98.41 28.8869C98.624 28.5475 98.7345 28.1531 98.728 27.752" fill="#3E2928"/>
<defs>
<filter id="filter0_d_288_11" x="0.930176" y="0.890991" width="189.355" height="181.895" filterUnits="userSpaceOnUse" color-interpolation-filters="sRGB">
<feFlood flood-opacity="0" result="BackgroundImageFix"/>
<feColorMatrix in="SourceAlpha" type="matrix" values="0 0 0 0 0 0 0 0 0 0 0 0 0 0 0 0 0 0 127 0" result="hardAlpha"/>
<feOffset dy="25"/>
<feGaussianBlur stdDeviation="25"/>
<feColorMatrix type="matrix" values="0 0 0 0 0.209139 0 0 0 0 0.0691446 0 0 0 0 0.478091 0 0 0 0.497159 0"/>
<feBlend mode="normal" in2="BackgroundImageFix" result="effect1_dropShadow_288_11"/>
<feBlend mode="normal" in="SourceGraphic" in2="effect1_dropShadow_288_11" result="shape"/>
</filter>
</defs>
</svg>
